<svg fill="none" height="137" viewBox="0 0 77 137" width="77" xmlns="http://www.w3.org/2000/svg"><path d="m40.4312 137c20.1965 0 36.5689-4.234 36.5689-9.457s-16.3724-9.457-36.5689-9.457c-20.1964 0-36.5689 4.234-36.5689 9.457s16.3725 9.457 36.5689 9.457z" fill="#f0f4f9"/><g fill="#000"><path d="m48.0917 102.082c.288.859.5292 1.734.7227 2.619.2024.873.3671 1.746.5117 2.619.2833 1.746.4876 3.485.6128 5.217.2471 3.475.2356 6.964-.0347 10.438l-.9539-1.609c.6967.448 1.3789.925 2.0582 1.399l1.0089.739.9945.763c.6562.526 1.3066 1.056 1.9397 1.623.6451.568 1.2608 1.17 1.8444 1.802-.8458-.143-1.6834-.33-2.5093-.562-.8181-.215-1.6159-.471-2.4138-.733l-1.1795-.416-1.1563-.443c-.769-.308-1.5408-.617-2.2924-.957l-.8673-.387-.0954-1.219c-.2702-3.474-.2818-6.963-.0346-10.438.1271-1.746.3266-3.492.6128-5.217.1445-.873.3093-1.746.5088-2.619.1949-.885.4361-1.759.7227-2.619z"/><path d="m34.7939 104.992c.2886.859.5308 1.733.7256 2.619.2023.873.3671 1.746.5116 2.619.2834 1.745.4867 3.498.61 5.258.1234 1.759.1812 3.511.1735 5.255 0 1.746-.0694 3.506-.2111 5.258l-.951-1.604c.6966.449 1.376.926 2.0553 1.4l1.0089.739.9974.763c.6533.523 1.3066 1.053 1.9368 1.623.646.566 1.2626 1.166 1.8472 1.796-.8445-.144-1.6811-.331-2.5063-.562-.821-.218-1.6189-.474-2.4138-.736l-1.1795-.416-1.1563-.44c-.769-.311-1.5408-.619-2.2953-.96l-.8673-.381-.0983-1.222c-.1416-1.746-.2052-3.492-.2139-5.258-.0087-1.767.0521-3.492.1764-5.255.1243-1.764.3266-3.492.6099-5.258.1446-.873.3093-1.746.5117-2.619.1957-.886.4389-1.76.7285-2.619z"/><path d="m54.1594 43.1818 15.2925 15.3929 3.5759-16.5684c.0809-.3842.0639-.7826-.0494-1.1583-.1133-.3758-.3191-.7165-.5984-.9907-.2792-.2741-.6229-.4727-.9989-.5772-.376-.1046-.7721-.1117-1.1516-.0207z"/></g><path d="m36.1813 112.557h-16.3158c-.7184 0-1.4073-.287-1.9153-.798s-.7934-1.205-.7934-1.928v-39.6376c0-7.5926 2.9957-14.8744 8.3283-20.2442 5.3327-5.3699 12.5657-8.3882 20.1088-8.3913h.0607c6.546 0 12.8239 2.6175 17.4527 7.2766 4.6287 4.6592 7.2291 10.9784 7.2291 17.5674v11.7673c0 9.1219-3.6 17.8701-10.008 24.3198-6.408 6.451-15.0992 10.074-24.1615 10.074z" fill="#fff" stroke="#000" stroke-miterlimit="10" stroke-width="2"/><path d="m40.5756 75.0208c3.1931 0 5.7816-2.6055 5.7816-5.8196s-2.5885-5.8196-5.7816-5.8196-5.7817 2.6055-5.7817 5.8196 2.5886 5.8196 5.7817 5.8196z" fill="#ffaeae"/><path d="m50.1153 70.6561c6.0669 0 10.9851-4.9505 10.9851-11.0573s-4.9182-11.0573-10.9851-11.0573c-6.067 0-10.9852 4.9505-10.9852 11.0573s4.9182 11.0573 10.9852 11.0573z" fill="#fff" stroke="#000" stroke-miterlimit="10" stroke-width="2"/><path d="m17.8017 112.75-16.68873-9.658 6.3627 9.393-7.47567 8.104z" fill="#000"/><path d="m26.0173 7.95532-1.5466 34.54828c-.0385.8664.1294 1.7295.4897 2.5174.3603.7878.9026 1.4774 1.5816 2.0114.679.5339 1.475.8967 2.3216 1.058.8466.1612 1.7192.1164 2.5451-.1309l11.7801-3.5209c.8257-.2471 1.5807-.6893 2.2021-1.2898s1.0912-1.3418 1.3701-2.1622c.2789-.8203.3589-1.6959.2334-2.5537-.1256-.8578-.4531-1.673-.9552-2.3775z" fill="#ff5050"/><path d="m50.2597 67.7462c1.3571 0 2.4572-3.4523 2.4572-7.711s-1.1001-7.711-2.4572-7.711-2.4572 3.4523-2.4572 7.711 1.1001 7.711 2.4572 7.711z" fill="#06aef1"/><path d="m50.2598 62.5086c4.2309 0 7.6607-1.1073 7.6607-2.4733 0-1.3659-3.4298-2.4733-7.6607-2.4733s-7.6607 1.1074-7.6607 2.4733c0 1.366 3.4298 2.4733 7.6607 2.4733z" fill="#06aef1"/><path d="m26.2662 0-2.2953 6.68675-6.7761 1.88847 5.6082 4.26288-.3093 7.0708 5.7614-4.0533 6.5853 2.482-2.0496-6.7682 4.3796-5.53736-7.0276-.13094z" fill="#fff"/><path d="m26.6418 2.02222-1.8443 5.37152-5.4406 1.51601 4.5039 3.42485-.2486 5.6771 4.6282-3.2561 5.2873 1.9932-1.6448-5.4355 3.5152-4.44624-5.6429-.10475z" fill="#06f2ae"/></svg>