<svg fill="none" height="24" viewBox="0 0 24 24" width="24" xmlns="http://www.w3.org/2000/svg"><path clip-rule="evenodd" d="m12 2.5c-5.8011 0-10.5 4.35833-10.5 9.739 0 4.3045 3.01013 7.9514 7.18048 9.2428.5221.0896.71547-.2093.71547-.4723 0-.2332-.00645-.843-.01289-1.6561-2.91989.5859-3.53868-1.3033-3.53868-1.3033-.47698-1.124-1.16666-1.4289-1.16666-1.4289-.95396-.6038.0709-.5918.0709-.5918 1.05064.0717 1.61142 1.0043 1.61142 1.0043.93462 1.4887 2.4558 1.0582 3.05524.8071.09669-.6277.36741-1.0582.66392-1.3033-2.3269-.2391-4.77625-1.0761-4.77625-4.8067 0-1.0642.40607-1.93105 1.08287-2.6126-.10958-.25109-.47053-1.23755.09668-2.57673 0 0 .88306-.26305 2.88767.99841.83793-.21523 1.73393-.32284 2.62983-.32882.8895.00598 1.7919.11359 2.6298.32882 2.0046-1.26146 2.8877-.99841 2.8877-.99841.5737 1.33918.2127 2.33162.1031 2.57673.6704.68155 1.0765 1.5484 1.0765 2.6126 0 3.7426-2.4558 4.5616-4.7956 4.8067.3738.299.7154.8968.7154 1.8055 0 1.3034-.0128 2.3496-.0128 2.6724 0 .2631.1869.562.7219.4664 4.1703-1.2914 7.174-4.9383 7.174-9.2368 0-5.38667-4.6989-9.745-10.5-9.745z" fill="#373737" fill-rule="evenodd"/></svg>