<svg fill="none" height="32" viewBox="0 0 32 32" width="32" xmlns="http://www.w3.org/2000/svg" xmlns:xlink="http://www.w3.org/1999/xlink"><clipPath id="a"><path d="m3.55566 3.55566h24.8889v24.8889h-24.8889z"/></clipPath><g clip-path="url(#a)" clip-rule="evenodd" fill-rule="evenodd"><path d="m8.79064 19.2397c.00027.3425-.06701.6817-.198.9982s-.32311.6041-.56536.8463c-.24226.2421-.5299.4341-.84645.565s-.6558.198-.99834.1976c-.34236.0001-.68139-.0672-.9977-.1982s-.60371-.323-.84574-.5652c-.24204-.2421-.43397-.5296-.56483-.8459-.13086-.3164-.19808-.6555-.1978-.9978-.00028-.3425.06697-.6816.1979-.998.13092-.3165.32295-.604.56509-.8461.24215-.2422.52966-.4342.8461-.5651.31643-.131.65557-.1982.99802-.1979h2.60815v2.6071zm1.30356 0c-.0003-.3425.067-.6816.1979-.998.1309-.3165.3229-.604.5651-.8461.2421-.2422.5297-.4342.8461-.5651.3164-.131.6556-.1982.998-.1979.3425-.0003.6816.0669.998.1979.3165.1309.604.3229.8461.5651.2422.2421.4342.5296.5651.8461.1309.3164.1982.6555.1979.998v6.5188c.0003.3424-.067.6816-.1979.998s-.3229.604-.5651.8461c-.2421.2422-.5296.4342-.8461.5651-.3164.1309-.6555.1982-.998.1979-.3424.0003-.6816-.067-.998-.1979s-.604-.3229-.8461-.5651c-.2422-.2421-.4342-.5297-.5651-.8461s-.1982-.6556-.1979-.998z" fill="#e01e5a"/><path d="m12.7013 8.77092c-.3425.00028-.6818-.06701-.9983-.19799-.3165-.13099-.604-.32311-.8462-.56537-.2421-.24226-.4342-.52989-.565-.84644-.1309-.31656-.198-.65581-.1976-.99834-.0003-.34245.067-.68159.1979-.99802.1309-.31644.3229-.60395.5651-.8461.2421-.24215.5296-.43417.8461-.5651.3164-.13092.6555-.19817.998-.1979.3424-.00027.6816.06698.998.1979.3164.13093.604.32295.8461.5651.2422.24215.4342.52966.5651.8461.1309.31643.1982.65557.1979.99802v2.60918h-2.6061zm0 1.32328c.3424-.0003.6816.067.998.1979s.604.3229.8461.5651c.2422.2421.4342.5296.5651.8461.1309.3164.1982.6555.1979.998.0003.3424-.067.6816-.1979.998s-.3229.604-.5651.8461c-.2421.2422-.5297.4342-.8461.5651s-.6556.1982-.998.1979h-6.53852c-.34236.0003-.68142-.0669-.99779-.1978-.31636-.1309-.60383-.3228-.84596-.5648-.24213-.2421-.43418-.5295-.56517-.8458-.13098-.3163-.19833-.6553-.1982-.9977-.00027-.3424.06698-.6816.1979-.998.13093-.3164.32295-.6039.5651-.8461.24215-.2421.52966-.4342.8461-.5651.31643-.1309.65557-.1982.99802-.1979h6.53952z" fill="#36c5f0"/><path d="m23.1504 12.7013c-.0003-.3425.067-.6818.198-.9983s.3231-.604.5654-.8462c.2422-.2421.5299-.4342.8464-.565.3166-.1309.6558-.198.9984-.1976.3424-.0003.6815.067.998.1979.3164.1309.6039.3229.8461.5651.2421.2421.4341.5296.5651.8461.1309.3164.1981.6555.1979.998.0002.3424-.067.6816-.1979.998-.131.3164-.323.604-.5651.8461-.2422.2422-.5297.4342-.8461.5651-.3165.1309-.6556.1982-.998.1979h-2.6082v-2.6061zm-1.3035 0c.0002.3424-.067.6816-.1979.998-.131.3164-.323.604-.5651.8461-.2422.2422-.5297.4342-.8461.5651-.3165.1309-.6556.1982-.9981.1979-.3425.0004-.6817-.0667-.9983-.1976s-.6042-.3229-.8464-.565c-.2423-.2422-.4344-.5297-.5654-.8462s-.1983-.6558-.198-.9983v-6.53852c-.0003-.34254.067-.68176.198-.99826s.3231-.60406.5654-.84622c.2422-.24217.5298-.43417.8464-.56503.3166-.13087.6558-.19801.9983-.1976.3425-.00028.6816.06697.9981.19789.3164.13093.6039.32296.8461.5651.2421.24215.4341.52966.5651.8461.1309.31643.1981.65557.1979.99802v6.53952z" fill="#2eb67d"/><path d="m19.2397 23.1503c.3424-.0002.6816.067.998.1979.3164.131.6039.323.8461.5651.2421.2422.4342.5297.5651.8461.1309.3165.1982.6556.1979.9981.0004.3425-.0667.6817-.1976.9983s-.3229.6042-.565.8464c-.2422.2423-.5298.4344-.8463.5654s-.6557.1983-.9982.198c-.3426.0003-.6818-.067-.9983-.198s-.604-.3231-.8462-.5654c-.2422-.2422-.4342-.5298-.565-.8464-.1309-.3166-.198-.6558-.1976-.9983v-2.6072zm0-1.3035c-.3425.0003-.6816-.067-.998-.1979-.3165-.1309-.604-.323-.8461-.5651-.2422-.2422-.4342-.5297-.5651-.8461-.131-.3164-.1982-.6556-.1979-.998-.0003-.3425.0669-.6816.1979-.998.1309-.3165.3229-.604.5651-.8461.2421-.2422.5296-.4342.8461-.5651.3164-.131.6555-.1982.998-.1979h6.5385c.3424-.0003.6816.0669.998.1979.3165.1309.604.3229.8461.5651.2422.2421.4342.5296.5651.8461.1309.3164.1982.6555.1979.998.0003.3424-.067.6816-.1979.998s-.3229.6039-.5651.8461c-.2421.2421-.5296.4342-.8461.5651-.3164.1309-.6556.1982-.998.1979z" fill="#ecb22e"/></g></svg>