<svg fill="none" height="384" viewBox="0 0 708 384" width="708" xmlns="http://www.w3.org/2000/svg"><g stroke="#f0f4f9" stroke-linecap="round" stroke-linejoin="round" stroke-miterlimit="10" stroke-width="2"><path d="m878.277 226.838h77.852l-110.371-217.27218c-6.495-12.75443-22.733-12.75443-29.272 0l-111.03 217.07318h78.028l47.528-92.705z"/><path d="m736.352 134.083h-77.852l110.371 217.074c6.495 12.754 22.733 12.754 29.272 0l111.03-217.272h-78.029l-47.527 92.953z"/><path d="m549.006 226.838h77.852l-110.327-217.27218c-6.495-12.75443-22.733-12.75443-29.272 0l-111.03 217.07318h78.028l47.528-92.705z"/><path d="m407.124 134.083h-77.896l110.371 217.074c6.495 12.754 22.733 12.754 29.272 0l111.03-217.272h-78.029l-47.527 92.953z"/><path d="m674.342 318.749h77.853l-110.372-217.272c-6.495-12.754-22.732-12.754-29.271 0l-111.03 217.074h78.028l47.528-92.706z"/><path d="m532.417 225.944h-77.853l110.372 217.073c6.495 12.755 22.732 12.755 29.271 0l111.03-217.271h-78.028l-47.528 92.953z"/><path d="m219.778 226.838h77.852l-110.328-217.27218c-6.495-12.75443-22.732-12.75443-29.271 0l-111.03 217.07318h78.028l47.528-92.705z"/><path d="m77.8526 134.083h-77.8526l110.372 217.074c6.495 12.754 22.732 12.754 29.271 0l111.03-217.272h-78.072l-47.484 92.904z"/><path d="m345.07 318.749h77.853l-110.328-217.272c-6.495-12.754-22.732-12.754-29.271 0l-111.03 217.074h78.028l47.528-92.706z"/><path d="m203.189 225.944h-77.897l110.372 217.073c6.495 12.755 22.733 12.755 29.272 0l111.03-217.271h-78.029l-47.527 92.953z"/></g></svg>